<?xml version="1.0" standalone="no"?>
<!DOCTYPE svg PUBLIC "-//W3C//DTD SVG 20010904//EN"
 "http://www.w3.org/TR/2001/REC-SVG-20010904/DTD/svg10.dtd">
<svg version="1.0" xmlns="http://www.w3.org/2000/svg"
 width="4rem" height="3.5rem" viewBox="0 0 128.000000 128.000000"
 preserveAspectRatio="xMidYMid meet">
<metadata>
Created by potrace 1.10, written by Peter Selinger 2001-2011
</metadata>
<g transform="translate(0.000000,128.000000) scale(0.100000,-0.100000)"
fill="#000000" stroke="none">
<path d="M692 1118 c-18 -18 -15 -123 3 -138 27 -23 44 4 42 68 -3 76 -17 98
-45 70z"/>
<path d="M966 961 c-32 -33 -47 -55 -43 -65 10 -27 31 -18 82 34 41 42 46 51
35 65 -7 8 -15 15 -19 15 -4 0 -29 -22 -55 -49z"/>
<path d="M383 984 c-8 -21 75 -106 101 -102 33 5 29 24 -16 72 -45 47 -74 58
-85 30z"/>
<path d="M648 906 c-112 -31 -185 -132 -176 -246 3 -40 6 -45 28 -45 23 0 25
3 22 38 -6 79 36 154 103 187 127 62 268 -25 268 -165 0 -80 -40 -138 -116
-170 -39 -16 -51 -50 -23 -61 25 -9 109 40 142 83 138 181 -31 439 -248 379z"/>
<path d="M262 678 c3 -21 8 -23 73 -23 63 0 70 2 70 20 0 18 -8 20 -73 23 -72
3 -73 2 -70 -20z"/>
<path d="M1007 686 c-10 -24 16 -36 78 -36 65 0 93 14 74 37 -16 18 -145 18
-152 -1z"/>
<path d="M433 534 c-24 -14 -43 -30 -43 -36 0 -6 -10 -8 -26 -4 -54 14 -144
-44 -144 -93 0 -9 -14 -28 -31 -40 -87 -64 -70 -195 31 -235 33 -13 80 -16
248 -16 182 0 212 3 249 19 49 23 73 62 73 120 0 44 -36 96 -77 112 -18 7 -23
16 -23 46 0 50 -39 107 -90 133 -54 28 -115 26 -167 -6z m131 -38 c51 -21 78
-63 74 -111 -3 -22 -8 -49 -13 -59 -7 -17 -5 -18 21 -13 77 14 123 -65 69
-118 l-24 -25 -226 0 -226 0 -24 25 c-46 45 -19 135 41 135 20 0 22 4 18 33
-10 61 48 93 116 64 10 -5 21 3 32 23 16 28 65 59 96 60 7 0 27 -6 46 -14z"/>
<path d="M923 454 c-4 -11 11 -33 45 -67 43 -43 53 -49 66 -38 22 19 21 22
-30 74 -47 49 -70 58 -81 31z"/>
</g>
</svg>
